<svg xmlns="http://www.w3.org/2000/svg" xmlns:xlink="http://www.w3.org/1999/xlink" viewBox="0 0 3097.47 800"><defs><style>.cls-1{fill:url(#Unbenannter_Verlauf_42);}.cls-2{font-size:253.16px;fill:#141f35;font-family:BerlinRounded-ExtraBold, Berlin Rounded;font-weight:800;letter-spacing:0.2em;}</style><linearGradient id="Unbenannter_Verlauf_42" x1="92.31" y1="92.32" x2="709.88" y2="709.89" gradientUnits="userSpaceOnUse"><stop offset="0.13" stop-color="#f0d43a"/><stop offset="0.14" stop-color="#f0ce3b"/><stop offset="0.24" stop-color="#eda144"/><stop offset="0.33" stop-color="#eb7b4c"/><stop offset="0.43" stop-color="#e95e52"/><stop offset="0.52" stop-color="#e84a56"/><stop offset="0.61" stop-color="#e73d58"/><stop offset="0.7" stop-color="#e73959"/></linearGradient></defs><path class="cls-1" d="M492.32,184.62v0C390.36,184.6,186.13,102,186.13,0h-1.5c0,169.92,137.74,307.68,307.68,307.69h0A184.61,184.61,0,0,1,676.92,492.31h0A184.62,184.62,0,0,1,492.3,676.93c-101.93,0-184.57-82.62-184.61-184.55h0C307.7,322.45,169.94,184.7,0,184.7v1.5c101.94,0,184.59,204.13,184.63,306.11h0C184.61,662.25,322.37,800,492.3,800S800,662.25,800,492.31,662.25,184.62,492.32,184.62Z"/><text class="cls-2" transform="translate(929.27 517.43) scale(0.96 1)">COMET CODE</text></svg>
